<?xml version="1.0" encoding="UTF-8"?>
<svg id="Layer_1" xmlns="http://www.w3.org/2000/svg" viewBox="0 0 1564.63 1448.49">
  <defs>
    <style>
      .cls-1 {
        letter-spacing: 0em;
      }

      .cls-2 {
        letter-spacing: -.01em;
      }

      .cls-3 {
        letter-spacing: 0em;
      }

      .cls-4 {
        letter-spacing: 0em;
      }

      .cls-5 {
        letter-spacing: 0em;
      }

      .cls-6 {
        letter-spacing: 0em;
      }

      .cls-7 {
        letter-spacing: 0em;
      }

      .cls-8 {
        letter-spacing: 0em;
      }

      .cls-9, .cls-10 {
        isolation: isolate;
      }

      .cls-11 {
        letter-spacing: -.01em;
      }

      .cls-12 {
        letter-spacing: -.03em;
      }

      .cls-10 {
        fill: #f4003d;
        font-family: TimesNewRomanPSMT, 'Times New Roman';
        font-size: 180px;
      }

      .cls-13 {
        letter-spacing: 0em;
      }

      .cls-14, .cls-15 {
        font-family: MyriadPro-Regular, 'Myriad Pro';
        font-size: 108px;
      }

      .cls-16 {
        letter-spacing: 0em;
      }

      .cls-15 {
        fill: #df003e;
      }

      .cls-17 {
        letter-spacing: 0em;
      }

      .cls-18 {
        letter-spacing: 0em;
      }
    </style>
  </defs>
  <g class="cls-9">
    <text class="cls-10" transform="translate(0 149.59)"><tspan x="0" y="0">Lituragy of the Hours</tspan></text>
  </g>
  <text class="cls-14" transform="translate(118.8 376.02)"><tspan class="cls-12" x="0" y="0">W</tspan><tspan x="87.8" y="0">e will lea</tspan><tspan class="cls-18" x="475.08" y="0">r</tspan><tspan x="510.83" y="0">n the </tspan><tspan class="cls-2" x="766.36" y="0">r</tspan><tspan x="800.59" y="0">eason </tspan><tspan class="cls-11" x="1091.65" y="0">f</tspan><tspan x="1121.78" y="0">or </tspan><tspan x="0" y="129.6">p</tspan><tspan class="cls-5" x="61.45" y="129.6">r</tspan><tspan class="cls-8" x="96.23" y="129.6">a</tspan><tspan x="147.42" y="129.6">ying the Litu</tspan><tspan class="cls-6" x="710.95" y="129.6">r</tspan><tspan class="cls-1" x="745.4" y="129.6">gy of the </tspan><tspan x="0" y="259.2">Hours</tspan><tspan class="cls-12" x="0" y="388.8">W</tspan><tspan x="87.8" y="388.8">e will lea</tspan><tspan class="cls-18" x="475.08" y="388.8">r</tspan><tspan x="510.83" y="388.8">n h</tspan><tspan class="cls-17" x="653.61" y="388.8">o</tspan><tspan x="712.14" y="388.8">w </tspan><tspan class="cls-3" x="814.52" y="388.8">t</tspan><tspan x="849.62" y="388.8">o p</tspan><tspan class="cls-5" x="993.26" y="388.8">r</tspan><tspan class="cls-8" x="1028.04" y="388.8">a</tspan><tspan x="1079.23" y="388.8">y </tspan><tspan x="0" y="518.4">the Litu</tspan><tspan class="cls-5" x="344.19" y="518.4">r</tspan><tspan x="378.97" y="518.4">agy of the Hours</tspan></text>
  <text class="cls-15" transform="translate(97.86 1132.52)"><tspan class="cls-4" x="0" y="0">M</tspan><tspan x="87.48" y="0">eeting N</tspan><tspan class="cls-7" x="470.98" y="0">o</tspan><tspan x="529.52" y="0">v 12 or 14 in </tspan><tspan x="0" y="129.6">class</tspan><tspan class="cls-16" x="211.46" y="129.6">r</tspan><tspan x="245.7" y="129.6">oom 3 </tspan><tspan class="cls-13" x="555.54" y="129.6">a</tspan><tspan x="607.17" y="129.6">t 6:30 pm</tspan></text>
</svg>