<?xml version="1.0" encoding="UTF-8"?>
<svg id="Layer_1" xmlns="http://www.w3.org/2000/svg" viewBox="0 0 1296 2026.5">
  <defs>
    <style>
      .cls-1 {
        letter-spacing: -.06em;
      }

      .cls-1, .cls-2, .cls-3, .cls-4, .cls-5, .cls-6, .cls-7, .cls-8, .cls-9, .cls-10, .cls-11, .cls-12 {
        font-size: 54px;
      }

      .cls-1, .cls-2, .cls-4, .cls-5, .cls-13, .cls-6, .cls-7, .cls-8, .cls-9, .cls-11, .cls-12 {
        isolation: isolate;
      }

      .cls-1, .cls-7, .cls-10, .cls-11 {
        font-family: TimesNewRomanPS-BoldMT, 'Times New Roman';
        font-weight: 700;
      }

      .cls-2 {
        letter-spacing: -.02em;
      }

      .cls-2, .cls-3, .cls-4, .cls-5, .cls-6, .cls-8, .cls-9, .cls-12 {
        fill: #eb0000;
        font-family: TimesNewRomanPSMT, 'Times New Roman';
      }

      .cls-4 {
        letter-spacing: -.09em;
      }

      .cls-5 {
        letter-spacing: -.06em;
      }

      .cls-8 {
        letter-spacing: -.1em;
      }

      .cls-9 {
        letter-spacing: -.04em;
      }

      .cls-11 {
        letter-spacing: -.04em;
      }

      .cls-12 {
        letter-spacing: -.14em;
      }
    </style>
  </defs>
  <g id="Form">
    <g class="cls-13">
      <text class="cls-6" transform="translate(25.45 166.26)"><tspan x="0" y="0">Grand Knight:</tspan></text>
    </g>
    <g class="cls-13">
      <text class="cls-6" transform="translate(24.29 262.45)"><tspan x="0" y="0">Chaplain:</tspan></text>
      <text class="cls-6" transform="translate(24.29 392.05)"><tspan x="0" y="0">Deputy Grand Knight:</tspan></text>
      <text class="cls-6" transform="translate(24.29 521.65)"><tspan x="0" y="0">Chancellor:</tspan></text>
      <text class="cls-6" transform="translate(24.29 651.25)"><tspan x="0" y="0">Recorder:</tspan></text>
      <text class="cls-5" transform="translate(24.29 780.85)"><tspan x="0" y="0">T</tspan></text>
      <text class="cls-6" transform="translate(55.38 780.85)"><tspan x="0" y="0">reasurer:</tspan></text>
      <text class="cls-6" transform="translate(24.29 910.45)"><tspan x="0" y="0">Lecturer:</tspan></text>
      <text class="cls-6" transform="translate(24.29 1040.05)"><tspan x="0" y="0">Advocate:</tspan></text>
      <text class="cls-8" transform="translate(24.29 1169.65)"><tspan x="0" y="0">W</tspan></text>
      <text class="cls-6" transform="translate(70.94 1169.65)"><tspan x="0" y="0">arden:</tspan></text>
      <text class="cls-6" transform="translate(24.29 1299.25)"><tspan x="0" y="0">Inside Guard:</tspan></text>
      <text class="cls-6" transform="translate(24.29 1428.85)"><tspan x="0" y="0">Outside Guard:</tspan></text>
      <text class="cls-5" transform="translate(24.29 1558.45)"><tspan x="0" y="0">T</tspan></text>
      <text class="cls-6" transform="translate(55.38 1558.45)"><tspan x="0" y="0">rustee for One</tspan></text>
      <text class="cls-9" transform="translate(364.25 1558.45)"><tspan x="0" y="0"> </tspan></text>
      <text class="cls-12" transform="translate(375.74 1558.45)"><tspan x="0" y="0">Y</tspan></text>
      <text class="cls-6" transform="translate(409.33 1558.45)"><tspan x="0" y="0">ear:</tspan></text>
      <text class="cls-5" transform="translate(24.29 1688.05)"><tspan x="0" y="0">T</tspan></text>
      <text class="cls-6" transform="translate(55.38 1688.05)"><tspan x="0" y="0">rustee for</tspan></text>
      <text class="cls-2" transform="translate(260.78 1688.05)"><tspan x="0" y="0"> </tspan></text>
      <text class="cls-4" transform="translate(273.3 1688.05)"><tspan x="0" y="0">T</tspan></text>
      <text class="cls-6" transform="translate(302.52 1688.05)"><tspan x="0" y="0">wo</tspan></text>
      <text class="cls-9" transform="translate(368.52 1688.05)"><tspan x="0" y="0"> </tspan></text>
      <text class="cls-12" transform="translate(380.01 1688.05)"><tspan x="0" y="0">Y</tspan></text>
      <text class="cls-6" transform="translate(413.6 1688.05)"><tspan x="0" y="0">ears:</tspan></text>
      <text class="cls-5" transform="translate(24.29 1817.65)"><tspan x="0" y="0">T</tspan></text>
      <text class="cls-6" transform="translate(55.38 1817.65)"><tspan x="0" y="0">rustee for</tspan></text>
      <text class="cls-2" transform="translate(260.78 1817.65)"><tspan x="0" y="0"> </tspan></text>
      <text class="cls-6" transform="translate(273.3 1817.65)"><tspan x="0" y="0">Three</tspan></text>
      <text class="cls-9" transform="translate(399.21 1817.65)"><tspan x="0" y="0"> </tspan></text>
      <text class="cls-12" transform="translate(410.7 1817.65)"><tspan x="0" y="0">Y</tspan></text>
      <text class="cls-6" transform="translate(444.3 1817.65)"><tspan x="0" y="0">ears:</tspan></text>
    </g>
    <g class="cls-13">
      <text class="cls-7" transform="translate(258.65 70.56)"><tspan x="0" y="0">Council 9168 2024-2025 Officers</tspan></text>
    </g>
  </g>
  <g id="People">
    <g class="cls-13">
      <text class="cls-7" transform="translate(568.94 164.82)"><tspan x="0" y="0">Josh Ezzell</tspan></text>
    </g>
    <g class="cls-13">
      <text class="cls-7" transform="translate(570.24 266.94)"><tspan x="0" y="0">Deacon Simeon</tspan></text>
    </g>
    <g class="cls-13">
      <text class="cls-7" transform="translate(578.1 384.77)"><tspan x="0" y="0">Keith Korinek</tspan></text>
    </g>
    <g class="cls-13">
      <text class="cls-7" transform="translate(572.86 515.69)"><tspan x="0" y="0">John Frazie</tspan></text>
      <text class="cls-11" transform="translate(847.32 515.69)"><tspan x="0" y="0">r</tspan></text>
    </g>
    <g class="cls-13">
      <text class="cls-7" transform="translate(575.48 651.85)"><tspan x="0" y="0">Mark Muenich</tspan></text>
    </g>
    <g class="cls-13">
      <text class="cls-7" transform="translate(574.17 772.3)"><tspan x="0" y="0">Charles Logsdon</tspan></text>
    </g>
    <g class="cls-13">
      <text class="cls-7" transform="translate(574.05 918.98)"><tspan x="0" y="0">John Frazie</tspan></text>
      <text class="cls-11" transform="translate(848.51 918.98)"><tspan x="0" y="0">r</tspan></text>
    </g>
    <g class="cls-13">
      <text class="cls-7" transform="translate(578.1 1027.6)"><tspan x="0" y="0">Mike Borgst</tspan></text>
      <text class="cls-11" transform="translate(864.55 1027.6)"><tspan x="0" y="0">r</tspan></text>
      <text class="cls-7" transform="translate(887.55 1027.6)"><tspan x="0" y="0">om</tspan></text>
    </g>
    <g class="cls-13">
      <text class="cls-7" transform="translate(587.26 1161.14)"><tspan x="0" y="0">Rafael Parra</tspan></text>
    </g>
    <g class="cls-13">
      <text class="cls-7" transform="translate(588.57 1278.97)"><tspan x="0" y="0">Frank Pittmann</tspan></text>
    </g>
    <g class="cls-13">
      <text class="cls-7" transform="translate(592.5 1420.36)"><tspan x="0" y="0">Clint Carrigan</tspan></text>
    </g>
    <g class="cls-13">
      <text class="cls-7" transform="translate(587.27 1560.45)"><tspan x="0" y="0">Alan Stanley</tspan></text>
    </g>
    <g class="cls-13">
      <text class="cls-7" transform="translate(588.58 1675.66)"><tspan x="0" y="0">Michael Clinton</tspan></text>
    </g>
    <g class="cls-13">
      <text class="cls-7" transform="translate(584.83 1815.63)"><tspan x="0" y="0">Joseph</tspan></text>
      <text class="cls-1" transform="translate(743.88 1815.63)"><tspan x="0" y="0"> </tspan></text>
      <text class="cls-7" transform="translate(754.4 1815.63)"><tspan x="0" y="0">Albanese</tspan></text>
    </g>
  </g>
  <text class="cls-3" transform="translate(40.71 1910.78)"><tspan x="0" y="0">Financial Secretary:</tspan></text>
  <text class="cls-10" transform="translate(581.06 1914.15)"><tspan x="0" y="0">Thomas Labrado</tspan></text>
</svg>