<?xml version="1.0" encoding="UTF-8"?>
<svg id="Layer_1" xmlns="http://www.w3.org/2000/svg" xmlns:xlink="http://www.w3.org/1999/xlink" viewBox="0 0 279.24 282.64">
  <defs>
    <style>
      .cls-1 {
        letter-spacing: -.03em;
      }

      .cls-1, .cls-2, .cls-3, .cls-4, .cls-5, .cls-6, .cls-7 {
        isolation: isolate;
      }

      .cls-1, .cls-2, .cls-3, .cls-5, .cls-6, .cls-7 {
        font-family: Verdana, Verdana;
        font-size: 12px;
      }

      .cls-2 {
        fill: red;
      }

      .cls-3 {
        letter-spacing: -.05em;
      }

      .cls-5 {
        letter-spacing: -.11em;
      }

      .cls-7 {
        letter-spacing: -.14em;
      }
    </style>
  </defs>
  <g class="cls-4">
    <text class="cls-6" transform="translate(0 48.6)"><tspan x="0" y="0">Thank </tspan></text>
    <text class="cls-6" transform="translate(41.11 48.6)"><tspan x="0" y="0">y</tspan></text>
    <text class="cls-6" transform="translate(48.11 48.6)"><tspan x="0" y="0">ou for visiting our </tspan></text>
    <text class="cls-2" transform="translate(159.51 48.6)"><tspan x="0" y="0">Cor</tspan></text>
    <text class="cls-6" transform="translate(180.29 48.6)"><tspan x="0" y="0" xml:space="preserve"> website. this </tspan></text>
    <text class="cls-6" transform="translate(0 63)"><tspan x="0" y="0">site is for non-members who are curious </tspan></text>
    <text class="cls-6" transform="translate(0 77.4)"><tspan x="0" y="0">about what </tspan></text>
    <text class="cls-2" transform="translate(72.08 77.4)"><tspan x="0" y="0">Cor </tspan></text>
    <text class="cls-6" transform="translate(97.08 77.4)"><tspan x="0" y="0">is. I</tspan></text>
    <text class="cls-6" transform="translate(120.26 77.4)"><tspan x="0" y="0">t</tspan></text>
    <text class="cls-1" transform="translate(125.1 77.4)"><tspan x="0" y="0">’</tspan></text>
    <text class="cls-6" transform="translate(127.92 77.4)"><tspan x="0" y="0">s also for members who </tspan></text>
    <text class="cls-6" transform="translate(0 91.8)"><tspan x="0" y="0">are looking for information about our </tspan></text>
    <text class="cls-6" transform="translate(0 106.2)"><tspan x="0" y="0">meetings or e</tspan></text>
    <text class="cls-6" transform="translate(83.3 106.2)"><tspan x="0" y="0">v</tspan></text>
    <text class="cls-6" transform="translate(90.3 106.2)"><tspan x="0" y="0">ents.</tspan></text>
    <text class="cls-6" transform="translate(0 135)"><tspan x="0" y="0">Non-memebers can go to the </tspan></text>
    <text class="cls-2" transform="translate(181.33 135)"><tspan x="0" y="0">Cor O</tspan></text>
    <text class="cls-2" transform="translate(215.78 135)"><tspan x="0" y="0">v</tspan></text>
    <text class="cls-2" transform="translate(222.77 135)"><tspan x="0" y="0">erview</tspan></text>
    <text class="cls-6" transform="translate(262.41 135)"><tspan x="0" y="0"> </tspan></text>
    <text class="cls-6" transform="translate(0 149.4)"><tspan x="0" y="0">page </tspan></text>
    <text class="cls-6" transform="translate(33.53 149.4)"><tspan x="0" y="0">b</tspan></text>
    <text class="cls-6" transform="translate(40.97 149.4)"><tspan x="0" y="0">y clicking the link in the N</tspan></text>
    <text class="cls-6" transform="translate(198.03 149.4)"><tspan x="0" y="0">a</tspan></text>
    <text class="cls-6" transform="translate(205.14 149.4)"><tspan x="0" y="0">vba</tspan></text>
    <text class="cls-7" transform="translate(226.93 149.4)"><tspan x="0" y="0">r</tspan></text>
    <text class="cls-6" transform="translate(230.35 149.4)"><tspan x="0" y="0">. </tspan></text>
    <text class="cls-6" transform="translate(0 163.8)"><tspan x="0" y="0">Clicking the </tspan></text>
    <text class="cls-2" transform="translate(74.59 163.8)"><tspan x="0" y="0">Schedule </tspan></text>
    <text class="cls-6" transform="translate(133.52 163.8)"><tspan x="0" y="0">link will ta</tspan></text>
    <text class="cls-6" transform="translate(194.87 163.8)"><tspan x="0" y="0">k</tspan></text>
    <text class="cls-6" transform="translate(201.85 163.8)"><tspan x="0" y="0">e </tspan></text>
    <text class="cls-6" transform="translate(213.22 163.8)"><tspan x="0" y="0">y</tspan></text>
    <text class="cls-6" transform="translate(220.22 163.8)"><tspan x="0" y="0">ou to the </tspan></text>
    <text class="cls-6" transform="translate(0 178.2)"><tspan x="0" y="0">meeting schedule so </tspan></text>
    <text class="cls-6" transform="translate(128.01 178.2)"><tspan x="0" y="0">y</tspan></text>
    <text class="cls-6" transform="translate(135.01 178.2)"><tspan x="0" y="0">ou can see wha</tspan></text>
    <text class="cls-6" transform="translate(228.76 178.2)"><tspan x="0" y="0">t</tspan></text>
    <text class="cls-1" transform="translate(233.61 178.2)"><tspan x="0" y="0">’</tspan></text>
    <text class="cls-6" transform="translate(236.42 178.2)"><tspan x="0" y="0">s </tspan></text>
    <text class="cls-6" transform="translate(0 192.6)"><tspan x="0" y="0">coming u</tspan></text>
    <text class="cls-6" transform="translate(55.38 192.6)"><tspan x="0" y="0">p</tspan></text>
    <text class="cls-6" transform="translate(62.74 192.6)"><tspan x="0" y="0">.</tspan></text>
    <text class="cls-6" transform="translate(0 221.4)"><tspan x="0" y="0">If </tspan></text>
    <text class="cls-6" transform="translate(13.49 221.4)"><tspan x="0" y="0">y</tspan></text>
    <text class="cls-6" transform="translate(20.48 221.4)"><tspan x="0" y="0">ou h</tspan></text>
    <text class="cls-6" transform="translate(47.17 221.4)"><tspan x="0" y="0">a</tspan></text>
    <text class="cls-6" transform="translate(54.29 221.4)"><tspan x="0" y="0">v</tspan></text>
    <text class="cls-6" transform="translate(61.28 221.4)"><tspan x="0" y="0">e questions, click the </tspan></text>
    <text class="cls-2" transform="translate(192.95 221.4)"><tspan x="0" y="0">Email Us!</tspan></text>
    <text class="cls-6" transform="translate(249.98 221.4)"><tspan x="0" y="0"> </tspan></text>
    <text class="cls-6" transform="translate(0 235.8)"><tspan x="0" y="0">link and send us a message. </tspan></text>
    <text class="cls-3" transform="translate(175.92 235.8)"><tspan x="0" y="0">W</tspan></text>
    <text class="cls-6" transform="translate(187.19 235.8)"><tspan x="0" y="0">e’ll get back </tspan></text>
    <text class="cls-6" transform="translate(0 250.2)"><tspan x="0" y="0">to </tspan></text>
    <text class="cls-6" transform="translate(16.23 250.2)"><tspan x="0" y="0">y</tspan></text>
    <text class="cls-6" transform="translate(23.23 250.2)"><tspan x="0" y="0">ou as soon as we can.</tspan></text>
    <text class="cls-5" transform="translate(0 279)"><tspan x="0" y="0">T</tspan></text>
    <text class="cls-6" transform="translate(6.11 279)"><tspan x="0" y="0">o check out pics of us, click the </tspan></text>
    <text class="cls-2" transform="translate(199.74 279)"><tspan x="0" y="0">Gallery </tspan></text>
    <text class="cls-6" transform="translate(246.43 279)"><tspan x="0" y="0">link.</tspan></text>
  </g>
  <image width="1113" height="383" transform="translate(82.57) scale(.09)" xlink:href="../../../OneDrive/KofC/COR/Pictures/CorImage-1.png"/>
</svg>