<?xml version="1.0" encoding="UTF-8"?>
<svg xmlns="http://www.w3.org/2000/svg" xmlns:xlink="http://www.w3.org/1999/xlink" viewBox="0 0 288 288">
  <defs>
    <style>
      .cls-1 {
        fill: red;
      }

      .cls-1, .cls-2, .cls-3, .cls-4, .cls-5, .cls-6, .cls-7, .cls-8 {
        isolation: isolate;
      }

      .cls-1, .cls-3, .cls-4, .cls-5, .cls-6, .cls-7, .cls-8 {
        font-family: Verdana, Verdana;
        font-size: 11.99px;
      }

      .cls-9 {
        fill: none;
      }

      .cls-3 {
        letter-spacing: -.05em;
      }

      .cls-4 {
        letter-spacing: -.11em;
      }

      .cls-6 {
        letter-spacing: -.03em;
      }

      .cls-7 {
        letter-spacing: -.14em;
      }

      .cls-8 {
        letter-spacing: -.03em;
      }
    </style>
  </defs>
  <g id="Layer_2">
    <rect class="cls-9" x="-.15" y=".73" width="290.18" height="287.56"/>
  </g>
  <g id="Layer_1">
    <g class="cls-2">
      <text class="cls-5" transform="translate(3.25 52.54)"><tspan x="0" y="0">Thank </tspan></text>
      <text class="cls-5" transform="translate(44.36 52.54)"><tspan x="0" y="0">y</tspan></text>
      <text class="cls-5" transform="translate(51.36 52.54)"><tspan x="0" y="0">ou for visiting our </tspan></text>
      <text class="cls-1" transform="translate(162.76 52.54)"><tspan x="0" y="0">Cor</tspan></text>
      <text class="cls-5" transform="translate(183.54 52.54)"><tspan x="0" y="0" xml:space="preserve"> website. this </tspan></text>
      <text class="cls-5" transform="translate(3.25 66.93)"><tspan x="0" y="0">site is for non-members who are curious </tspan></text>
      <text class="cls-5" transform="translate(3.25 81.32)"><tspan x="0" y="0">about what </tspan></text>
      <text class="cls-1" transform="translate(75.33 81.32)"><tspan x="0" y="0">Cor </tspan></text>
      <text class="cls-5" transform="translate(100.33 81.32)"><tspan x="0" y="0">is. I</tspan></text>
      <text class="cls-5" transform="translate(123.51 81.32)"><tspan x="0" y="0">t</tspan></text>
      <text class="cls-8" transform="translate(128.35 81.32)"><tspan x="0" y="0">’</tspan></text>
      <text class="cls-5" transform="translate(131.17 81.32)"><tspan x="0" y="0">s also for members who </tspan></text>
      <text class="cls-5" transform="translate(3.25 95.71)"><tspan x="0" y="0">are looking for information about our </tspan></text>
      <text class="cls-5" transform="translate(3.25 110.1)"><tspan x="0" y="0">meetings or e</tspan></text>
      <text class="cls-5" transform="translate(86.55 110.1)"><tspan x="0" y="0">v</tspan></text>
      <text class="cls-5" transform="translate(93.55 110.1)"><tspan x="0" y="0">ents.</tspan></text>
      <text class="cls-5" transform="translate(3.25 138.88)"><tspan x="0" y="0">Non-memebers can go to the </tspan></text>
      <text class="cls-1" transform="translate(184.58 138.88)"><tspan x="0" y="0">Cor O</tspan></text>
      <text class="cls-1" transform="translate(219.03 138.88)"><tspan x="0" y="0">v</tspan></text>
      <text class="cls-1" transform="translate(226.02 138.88)"><tspan x="0" y="0">erview</tspan></text>
      <text class="cls-5" transform="translate(265.66 138.88)"><tspan x="0" y="0"> </tspan></text>
      <text class="cls-5" transform="translate(3.25 153.27)"><tspan x="0" y="0">page </tspan></text>
      <text class="cls-5" transform="translate(36.78 153.27)"><tspan x="0" y="0">b</tspan></text>
      <text class="cls-5" transform="translate(44.22 153.27)"><tspan x="0" y="0">y clicking the link in the N</tspan></text>
      <text class="cls-5" transform="translate(201.28 153.27)"><tspan x="0" y="0">a</tspan></text>
      <text class="cls-5" transform="translate(208.39 153.27)"><tspan x="0" y="0">vba</tspan></text>
      <text class="cls-7" transform="translate(230.18 153.27)"><tspan x="0" y="0">r</tspan></text>
      <text class="cls-5" transform="translate(233.6 153.27)"><tspan x="0" y="0">. </tspan></text>
      <text class="cls-5" transform="translate(3.25 167.66)"><tspan x="0" y="0">Clicking the </tspan></text>
      <text class="cls-1" transform="translate(77.84 167.66)"><tspan x="0" y="0">Schedule </tspan></text>
      <text class="cls-5" transform="translate(136.77 167.66)"><tspan x="0" y="0">link will ta</tspan></text>
      <text class="cls-5" transform="translate(198.12 167.66)"><tspan x="0" y="0">k</tspan></text>
      <text class="cls-5" transform="translate(205.1 167.66)"><tspan x="0" y="0">e </tspan></text>
      <text class="cls-5" transform="translate(216.47 167.66)"><tspan x="0" y="0">y</tspan></text>
      <text class="cls-5" transform="translate(223.47 167.66)"><tspan x="0" y="0">ou to the </tspan></text>
      <text class="cls-5" transform="translate(3.25 182.05)"><tspan x="0" y="0">meeting schedule so </tspan></text>
      <text class="cls-5" transform="translate(131.26 182.05)"><tspan x="0" y="0">y</tspan></text>
      <text class="cls-5" transform="translate(138.26 182.05)"><tspan x="0" y="0">ou can see wha</tspan></text>
      <text class="cls-5" transform="translate(232.01 182.05)"><tspan x="0" y="0">t</tspan></text>
      <text class="cls-6" transform="translate(236.86 182.05)"><tspan x="0" y="0">’</tspan></text>
      <text class="cls-5" transform="translate(239.67 182.05)"><tspan x="0" y="0">s </tspan></text>
      <text class="cls-5" transform="translate(3.25 196.44)"><tspan x="0" y="0">coming u</tspan></text>
      <text class="cls-5" transform="translate(58.63 196.44)"><tspan x="0" y="0">p</tspan></text>
      <text class="cls-5" transform="translate(65.99 196.44)"><tspan x="0" y="0">.</tspan></text>
      <text class="cls-5" transform="translate(3.25 225.22)"><tspan x="0" y="0">If </tspan></text>
      <text class="cls-5" transform="translate(16.74 225.22)"><tspan x="0" y="0">y</tspan></text>
      <text class="cls-5" transform="translate(23.73 225.22)"><tspan x="0" y="0">ou h</tspan></text>
      <text class="cls-5" transform="translate(50.42 225.22)"><tspan x="0" y="0">a</tspan></text>
      <text class="cls-5" transform="translate(57.54 225.22)"><tspan x="0" y="0">v</tspan></text>
      <text class="cls-5" transform="translate(64.53 225.22)"><tspan x="0" y="0">e questions, click the </tspan></text>
      <text class="cls-1" transform="translate(196.2 225.22)"><tspan x="0" y="0">Email Us!</tspan></text>
      <text class="cls-5" transform="translate(253.23 225.22)"><tspan x="0" y="0"> </tspan></text>
      <text class="cls-5" transform="translate(3.25 239.62)"><tspan x="0" y="0">link and send us a message. </tspan></text>
      <text class="cls-3" transform="translate(179.17 239.62)"><tspan x="0" y="0">W</tspan></text>
      <text class="cls-5" transform="translate(190.44 239.62)"><tspan x="0" y="0">e’ll get back </tspan></text>
      <text class="cls-5" transform="translate(3.25 254.01)"><tspan x="0" y="0">to </tspan></text>
      <text class="cls-5" transform="translate(19.48 254.01)"><tspan x="0" y="0">y</tspan></text>
      <text class="cls-5" transform="translate(26.48 254.01)"><tspan x="0" y="0">ou as soon as we can.</tspan></text>
      <text class="cls-4" transform="translate(3.25 282.79)"><tspan x="0" y="0">T</tspan></text>
      <text class="cls-5" transform="translate(9.36 282.79)"><tspan x="0" y="0">o check out pics of us, click the </tspan></text>
      <text class="cls-1" transform="translate(202.99 282.79)"><tspan x="0" y="0">Gallery </tspan></text>
      <text class="cls-5" transform="translate(249.68 282.79)"><tspan x="0" y="0">link.</tspan></text>
    </g>
    <image width="1113" height="383" transform="translate(85.82 3.78) scale(.09)" xlink:href="../../../OneDrive/KofC/COR/Pictures/CorImage-1.png"/>
  </g>
</svg>